<svg width="111" height="67" viewBox="0 0 111 67" fill="none" xmlns="http://www.w3.org/2000/svg">
<g filter="url(#filter0_d_22_2)">
<path d="M24.6405 51.78C24.6672 51.7933 24.6805 51.82 24.6805 51.86C24.6539 51.9533 24.6005 51.9733 24.5205 51.92C23.3605 51.1067 22.7805 49.9133 22.7805 48.34C22.7805 47.6867 22.9072 46.9933 23.1605 46.26C23.4272 45.5133 23.8939 44.62 24.5605 43.58C25.2272 42.54 25.8739 41.64 26.5005 40.88C27.1272 40.12 27.7272 39.4133 28.3005 38.76C28.8872 38.0933 29.1939 37.7333 29.2205 37.68C29.3805 37.44 29.4872 37.4667 29.5405 37.76C29.5539 37.8533 29.5605 37.96 29.5605 38.08C29.5605 38.2 29.5272 38.3067 29.4605 38.4C28.6339 39.4133 27.8339 40.56 27.0605 41.84C25.7672 44 24.8405 45.9667 24.2805 47.74C24.0672 48.4467 23.9605 49.18 23.9605 49.94C23.9605 50.7 24.1872 51.3133 24.6405 51.78ZM8.00055 44.78C10.1872 43.8733 12.8205 43.42 15.9005 43.42C17.4205 43.42 18.9405 43.66 20.4605 44.14C20.8205 43.7667 21.3539 43.2133 22.0605 42.48C22.7672 41.7333 23.3272 41.1467 23.7405 40.72C24.9405 39.48 25.9205 38.5667 26.6805 37.98C27.9605 36.98 29.1339 36.48 30.2005 36.48C30.6805 36.48 31.1205 36.56 31.5205 36.72C31.9205 36.8667 32.1605 36.9867 32.2405 37.08C32.3205 37.16 32.3605 37.2067 32.3605 37.22C32.3605 37.2333 32.3472 37.26 32.3205 37.3C32.2939 37.3267 32.2539 37.3067 32.2005 37.24C31.9472 37 31.4539 36.88 30.7205 36.88C29.4805 36.88 28.1739 37.42 26.8005 38.5C25.8139 39.3 24.9939 40.0333 24.3405 40.7C23.6872 41.3533 23.0005 42.0533 22.2805 42.8C21.5739 43.5333 21.0939 44.0267 20.8405 44.28C22.1739 44.7733 22.9005 45.42 23.0205 46.22C23.0339 46.3 23.0272 46.3533 23.0005 46.38C22.9872 46.4067 22.9605 46.4067 22.9205 46.38C22.8939 46.3533 22.8739 46.3133 22.8605 46.26C22.7539 46.0067 22.3805 45.8067 21.7405 45.66C21.1672 45.5267 20.5072 45.4267 19.7605 45.36C17.0539 47.9733 14.6605 49.6333 12.5805 50.34C11.4472 50.74 10.3739 50.94 9.36055 50.94C7.54721 50.94 6.28721 50.6667 5.58055 50.12C4.88721 49.5867 4.54055 48.9933 4.54055 48.34C4.54055 48.0867 4.58721 47.8267 4.68055 47.56C5.08055 46.4667 6.18721 45.54 8.00055 44.78ZM18.0205 45.28C16.2472 45.28 14.3805 45.4667 12.4205 45.84C9.40721 46.3733 7.44721 47.1667 6.54055 48.22C6.26055 48.5533 6.12055 48.8667 6.12055 49.16C6.12055 49.5067 6.30721 49.82 6.68055 50.1C7.12055 50.4333 7.88055 50.6 8.96055 50.6C10.0539 50.6 11.2339 50.42 12.5005 50.06C14.3939 49.4733 16.6472 47.8933 19.2605 45.32C18.8472 45.2933 18.4339 45.28 18.0205 45.28ZM31.486 49.08C31.2327 49.7733 31.106 50.34 31.106 50.78C31.106 51.22 31.1993 51.5533 31.386 51.78C31.426 51.8333 31.4327 51.8667 31.406 51.88C31.3793 51.9067 31.3593 51.92 31.346 51.92C31.3327 51.92 31.3127 51.9133 31.286 51.9C30.8593 51.5533 30.646 51.0333 30.646 50.34C30.646 49.66 30.786 48.8733 31.066 47.98C30.5193 48.6867 29.9793 49.2667 29.446 49.72C28.806 50.2533 28.1527 50.52 27.486 50.52C27.0593 50.52 26.6593 50.3733 26.286 50.08C25.9127 49.8 25.726 49.3333 25.726 48.68C25.7127 48.36 25.7727 47.9933 25.906 47.58C25.6393 47.82 25.4727 47.9667 25.406 48.02C25.326 48.0733 25.2727 48.0733 25.246 48.02C25.2193 47.9667 25.206 47.92 25.206 47.88C25.206 47.8267 25.2527 47.7667 25.346 47.7C25.426 47.62 25.886 47.1267 26.726 46.22C27.2193 45.6733 27.806 45.2467 28.486 44.94C29.166 44.6333 29.8127 44.48 30.426 44.48C30.986 44.48 31.3927 44.58 31.646 44.78C31.9127 44.9667 32.046 45.2067 32.046 45.5C32.526 44.4867 33.0393 43.5267 33.586 42.62C34.146 41.7 34.5793 41.0667 34.886 40.72C35.2193 40.3467 35.6393 40.16 36.146 40.16C36.6527 40.16 37.066 40.3 37.386 40.58C37.106 40.7533 36.5593 41.3267 35.746 42.3C34.9327 43.2733 34.1393 44.32 33.366 45.44C32.5927 46.5467 31.966 47.76 31.486 49.08ZM31.646 45.3C31.646 45.0333 31.4793 44.9 31.146 44.9C30.9727 44.9 30.746 44.9533 30.466 45.06C29.8393 45.3 29.2193 45.7667 28.606 46.46C27.846 47.3267 27.466 48.1533 27.466 48.94C27.466 49.4067 27.6193 49.6867 27.926 49.78C27.9927 49.8067 28.0593 49.82 28.126 49.82C28.6727 49.82 29.486 49.2733 30.566 48.18C30.8593 47.9 31.106 47.6 31.306 47.28C31.4127 46.9733 31.5527 46.62 31.726 46.22C31.606 46.3 31.506 46.3133 31.426 46.26C31.3593 46.1933 31.3793 46.06 31.486 45.86C31.5927 45.6467 31.646 45.46 31.646 45.3ZM40.8971 46.92C40.7504 47.0933 40.5971 47.28 40.4371 47.48C40.2904 47.68 40.0971 47.9533 39.8571 48.3C39.6304 48.6467 39.5171 48.94 39.5171 49.18C39.5171 49.42 39.6171 49.54 39.8171 49.54C40.0304 49.54 40.3704 49.4133 40.8371 49.16C41.7704 48.6267 42.8038 47.8267 43.9371 46.76C44.0704 46.6267 44.1571 46.6067 44.1971 46.7C44.1971 46.7133 44.1971 46.74 44.1971 46.78C44.1971 46.82 44.1704 46.8667 44.1171 46.92C41.8238 49.08 40.1571 50.16 39.1171 50.16C38.8104 50.16 38.5504 50.06 38.3371 49.86C38.1371 49.6467 38.0371 49.4 38.0371 49.12C38.0371 48.84 38.1571 48.4133 38.3971 47.84C37.7971 48.5867 37.1504 49.1667 36.4571 49.58C35.7771 49.98 35.2438 50.18 34.8571 50.18C34.4704 50.18 34.1371 50.0667 33.8571 49.84C33.5904 49.6 33.4571 49.3067 33.4571 48.96C33.4571 47.9733 33.8971 47.0067 34.7771 46.06C35.4438 45.3533 36.2704 44.8533 37.2571 44.56C37.6971 44.4133 38.1238 44.34 38.5371 44.34C38.9638 44.34 39.3704 44.46 39.7571 44.7C40.1571 44.9267 40.4104 45.2 40.5171 45.52C40.9171 45.52 41.2038 45.6667 41.3771 45.96C41.4038 46 41.4171 46.0667 41.4171 46.16C41.4171 46.2533 41.3638 46.36 41.2571 46.48C41.1638 46.6 41.0438 46.7467 40.8971 46.92ZM39.4371 44.94C39.1571 44.94 38.8238 45.0267 38.4371 45.2C37.7571 45.4933 37.1104 46 36.4971 46.72C35.5238 47.8667 35.0371 48.7067 35.0371 49.24C35.0371 49.52 35.1504 49.66 35.3771 49.66C35.5638 49.66 35.8704 49.54 36.2971 49.3C36.7371 49.06 37.3104 48.5867 38.0171 47.88C38.0571 47.84 38.2104 47.6933 38.4771 47.44C38.7438 47.1867 38.9704 46.9667 39.1571 46.78C39.7838 46.1267 40.0971 45.66 40.0971 45.38C40.0971 45.0867 39.8771 44.94 39.4371 44.94ZM52.5055 45.54C52.5055 46.0333 52.0855 46.8467 51.2455 47.98C50.7389 48.66 50.4855 49.08 50.4855 49.24C50.4855 49.4 50.5655 49.48 50.7255 49.48C50.8989 49.48 51.1389 49.38 51.4455 49.18C52.2055 48.66 52.9655 48.0333 53.7255 47.3C53.8322 47.1933 53.9055 47.1667 53.9455 47.22C53.9855 47.2733 54.0055 47.3133 54.0055 47.34C54.0055 47.3667 53.8589 47.52 53.5655 47.8C53.2722 48.08 52.9455 48.3733 52.5855 48.68C52.2389 48.9867 51.7989 49.3067 51.2655 49.64C50.7322 49.96 50.2922 50.12 49.9455 50.12C49.2255 50.12 48.8655 49.8 48.8655 49.16C48.8655 48.9333 48.9055 48.6667 48.9855 48.36C49.1589 47.84 49.9122 46.8333 51.2455 45.34C51.4189 45.1533 51.5055 45.0067 51.5055 44.9C51.5055 44.7933 51.3722 44.74 51.1055 44.74C50.8389 44.74 50.4189 44.9733 49.8455 45.44C49.6455 45.6 49.3989 45.84 49.1055 46.16C48.8122 46.4667 48.4655 46.9667 48.0655 47.66C47.6789 48.3533 47.3922 48.9667 47.2055 49.5C47.1255 49.74 46.9655 49.86 46.7255 49.86C46.6722 49.86 46.6055 49.8533 46.5255 49.84C46.2722 49.7733 46.1722 49.6533 46.2255 49.48C47.2655 47.6267 47.8855 46.4667 48.0855 46C48.2855 45.5333 48.3855 45.2 48.3855 45C48.3855 44.8 48.3055 44.7 48.1455 44.7C47.4389 44.7 46.4255 45.8533 45.1055 48.16C44.6255 48.9067 44.2389 49.44 43.9455 49.76C43.6522 50.08 43.3855 50.24 43.1455 50.24C43.1189 50.24 43.0922 50.24 43.0655 50.24C42.7189 50.24 42.3789 50.1 42.0455 49.82C42.1255 49.7 42.3189 49.44 42.6255 49.04C43.3055 48.2133 43.8989 47.4133 44.4055 46.64C43.8322 47.2133 43.3455 47.66 42.9455 47.98C42.8122 48.0867 42.7389 48.0933 42.7255 48C42.6989 47.9067 42.7255 47.8267 42.8055 47.76C42.8855 47.68 43.0189 47.56 43.2055 47.4C43.3922 47.2267 43.5122 47.1133 43.5655 47.06C43.6322 47.0067 43.7455 46.9067 43.9055 46.76C44.0789 46.6 44.2055 46.4733 44.2855 46.38C44.6589 45.94 44.9322 45.5667 45.1055 45.26C45.1722 45.1 45.1989 44.9467 45.1855 44.8C45.1855 44.64 45.1522 44.54 45.0855 44.5C45.0322 44.4467 45.0122 44.3867 45.0255 44.32C45.0255 44.2133 45.0789 44.16 45.1855 44.16C45.2389 44.16 45.2989 44.1733 45.3655 44.2C45.7789 44.3867 45.9855 44.7933 45.9855 45.42C45.9855 45.7933 45.9122 46.2 45.7655 46.64C46.0322 46.2267 46.3189 45.82 46.6255 45.42C47.1722 44.7133 47.7189 44.36 48.2655 44.36C48.6389 44.36 48.8255 44.5733 48.8255 45C48.8255 45.4 48.5455 46.1133 47.9855 47.14C48.5455 46.42 48.9789 45.8933 49.2855 45.56C49.9922 44.8267 50.6722 44.46 51.3255 44.46C52.0189 44.46 52.4122 44.76 52.5055 45.36C52.5055 45.4267 52.5055 45.4867 52.5055 45.54ZM58.5891 50.74C58.5891 50.1 59.5491 48.38 61.4691 45.58C61.4025 45.34 61.3691 45.12 61.3691 44.92C61.3691 44.72 61.5358 44.4867 61.8691 44.22C62.2025 43.9533 62.4558 43.82 62.6291 43.82C62.6558 43.82 62.6758 43.82 62.6891 43.82C63.4758 42.74 64.1758 41.8267 64.7891 41.08C65.4025 40.3333 65.7625 39.96 65.8691 39.96C65.9758 39.96 66.0558 40.0067 66.1091 40.1C66.1758 40.18 66.2091 40.2667 66.2091 40.36C65.1425 41.68 64.0491 43.1067 62.9291 44.64L62.9691 44.78L63.6891 44.72C64.7025 44.6533 65.8025 44.4267 66.9891 44.04C68.1758 43.64 69.1491 43.1867 69.9091 42.68C71.4825 41.6133 72.2691 40.6333 72.2691 39.74C72.2691 39.3533 72.0091 39.0267 71.4891 38.76C70.9691 38.4933 70.1558 38.36 69.0491 38.36C67.9425 38.36 66.4358 38.6333 64.5291 39.18C62.6358 39.7133 61.3158 40.3 60.5691 40.94C60.3558 41.1267 60.2758 41.2733 60.3291 41.38C60.3958 41.4867 60.4091 41.5467 60.3691 41.56C60.3291 41.5733 60.2691 41.5533 60.1891 41.5C59.9091 41.34 59.7291 41.14 59.6491 40.9C59.5825 40.66 59.5491 40.48 59.5491 40.36C59.5491 40.24 59.5825 40.1533 59.6491 40.1C60.0891 39.46 61.0691 38.86 62.5891 38.3C64.1225 37.7267 65.5358 37.3533 66.8291 37.18C68.1225 36.9933 69.0758 36.9 69.6891 36.9C70.3158 36.9 70.8291 36.94 71.2291 37.02C71.6425 37.1 72.0091 37.28 72.3291 37.56C72.8225 37.9733 73.0691 38.5533 73.0691 39.3C73.0691 40.0333 72.7958 40.7133 72.2491 41.34C71.7025 41.9667 70.9958 42.5333 70.1291 43.04C69.2758 43.5333 68.2358 43.98 67.0091 44.38C65.5825 44.8467 64.2691 45.08 63.0691 45.08C63.4958 46.1467 64.3491 47.2267 65.6291 48.32C66.9225 49.4 67.9891 49.94 68.8291 49.94C69.1625 49.94 69.4558 49.86 69.7091 49.7C69.9625 49.54 70.1091 49.34 70.1491 49.1C70.1491 49.0333 70.1825 49.0133 70.2491 49.04C70.2758 49.08 70.2891 49.1133 70.2891 49.14C70.1825 50.0333 69.4225 50.48 68.0091 50.48C67.1958 50.48 66.3491 50.2667 65.4691 49.84C64.5891 49.4133 63.8358 48.88 63.2091 48.24C62.5958 47.6 62.1091 46.94 61.7491 46.26C60.3358 48.3133 59.4625 49.76 59.1291 50.6C59.0491 50.8133 58.9425 50.92 58.8091 50.92C58.6625 50.92 58.5891 50.86 58.5891 50.74ZM74.1474 49.66C73.2541 50.1133 72.4741 50.34 71.8074 50.34C71.2474 50.34 70.8674 50.1533 70.6674 49.78C70.5608 49.5933 70.5074 49.38 70.5074 49.14C70.5074 48.5933 70.6341 48.06 70.8874 47.54C70.7141 47.7133 70.5474 47.8533 70.3874 47.96C70.2541 48.08 70.1874 48.0667 70.1874 47.92C70.1874 47.8267 70.3074 47.68 70.5474 47.48C70.7741 47.28 71.1274 46.9467 71.6074 46.48C72.0874 46 72.4674 45.64 72.7474 45.4C73.5608 44.72 74.4208 44.38 75.3274 44.38C75.6608 44.38 76.0008 44.4667 76.3474 44.64C76.8541 44.88 77.1074 45.32 77.1074 45.96C77.1074 46.7333 76.7208 47.5267 75.9474 48.34C75.6408 48.6867 75.2141 49.0333 74.6674 49.38C75.7608 49.2067 76.9208 48.5467 78.1474 47.4C78.2141 47.3467 78.2741 47.3267 78.3274 47.34C78.3808 47.34 78.4074 47.3667 78.4074 47.42C78.4074 47.4733 78.3808 47.5267 78.3274 47.58C76.8608 48.9667 75.4941 49.66 74.2274 49.66C74.2008 49.66 74.1741 49.66 74.1474 49.66ZM76.0874 47.56C76.4208 47.0533 76.5874 46.6267 76.5874 46.28C76.5874 45.92 76.4341 45.6467 76.1274 45.46C75.9541 45.3133 75.7541 45.24 75.5274 45.24C74.7141 45.24 73.9608 45.56 73.2674 46.2C72.5874 46.84 72.1341 47.52 71.9074 48.24C71.8141 48.4933 71.7674 48.76 71.7674 49.04C71.7674 49.3067 71.8674 49.5 72.0674 49.62C72.2808 49.7267 72.5141 49.78 72.7674 49.78C73.0208 49.78 73.3874 49.6533 73.8674 49.4C73.8408 49.4 73.8008 49.3867 73.7474 49.36C73.5874 49.28 73.5074 49.1733 73.5074 49.04C73.5074 48.5733 73.7674 48.1 74.2874 47.62C74.6608 47.2867 75.0408 47.12 75.4274 47.12C75.8141 47.12 76.0341 47.2667 76.0874 47.56ZM87.3884 45.54C87.3884 46.0333 86.9684 46.8467 86.1284 47.98C85.6217 48.66 85.3684 49.08 85.3684 49.24C85.3684 49.4 85.4484 49.48 85.6084 49.48C85.7817 49.48 86.0217 49.38 86.3284 49.18C87.0884 48.66 87.8484 48.0333 88.6084 47.3C88.715 47.1933 88.7884 47.1667 88.8284 47.22C88.8684 47.2733 88.8884 47.3133 88.8884 47.34C88.8884 47.3667 88.7417 47.52 88.4484 47.8C88.155 48.08 87.8284 48.3733 87.4684 48.68C87.1217 48.9867 86.6817 49.3067 86.1484 49.64C85.615 49.96 85.175 50.12 84.8284 50.12C84.1084 50.12 83.7484 49.8 83.7484 49.16C83.7484 48.9333 83.7884 48.6667 83.8684 48.36C84.0417 47.84 84.795 46.8333 86.1284 45.34C86.3017 45.1533 86.3884 45.0067 86.3884 44.9C86.3884 44.7933 86.255 44.74 85.9884 44.74C85.7217 44.74 85.3017 44.9733 84.7284 45.44C84.5284 45.6 84.2817 45.84 83.9884 46.16C83.695 46.4667 83.3484 46.9667 82.9484 47.66C82.5617 48.3533 82.275 48.9667 82.0884 49.5C82.0084 49.74 81.8484 49.86 81.6084 49.86C81.555 49.86 81.4884 49.8533 81.4084 49.84C81.155 49.7733 81.055 49.6533 81.1084 49.48C82.1484 47.6267 82.7684 46.4667 82.9684 46C83.1684 45.5333 83.2684 45.2 83.2684 45C83.2684 44.8 83.1884 44.7 83.0284 44.7C82.3217 44.7 81.3084 45.8533 79.9884 48.16C79.5084 48.9067 79.1217 49.44 78.8284 49.76C78.535 50.08 78.2684 50.24 78.0284 50.24C78.0017 50.24 77.975 50.24 77.9484 50.24C77.6017 50.24 77.2617 50.1 76.9284 49.82C77.0084 49.7 77.2017 49.44 77.5084 49.04C78.1884 48.2133 78.7817 47.4133 79.2884 46.64C78.715 47.2133 78.2284 47.66 77.8284 47.98C77.695 48.0867 77.6217 48.0933 77.6084 48C77.5817 47.9067 77.6084 47.8267 77.6884 47.76C77.7684 47.68 77.9017 47.56 78.0884 47.4C78.275 47.2267 78.395 47.1133 78.4484 47.06C78.515 47.0067 78.6284 46.9067 78.7884 46.76C78.9617 46.6 79.0884 46.4733 79.1684 46.38C79.5417 45.94 79.815 45.5667 79.9884 45.26C80.055 45.1 80.0817 44.9467 80.0684 44.8C80.0684 44.64 80.035 44.54 79.9684 44.5C79.915 44.4467 79.895 44.3867 79.9084 44.32C79.9084 44.2133 79.9617 44.16 80.0684 44.16C80.1217 44.16 80.1817 44.1733 80.2484 44.2C80.6617 44.3867 80.8684 44.7933 80.8684 45.42C80.8684 45.7933 80.795 46.2 80.6484 46.64C80.915 46.2267 81.2017 45.82 81.5084 45.42C82.055 44.7133 82.6017 44.36 83.1484 44.36C83.5217 44.36 83.7084 44.5733 83.7084 45C83.7084 45.4 83.4284 46.1133 82.8684 47.14C83.4284 46.42 83.8617 45.8933 84.1684 45.56C84.875 44.8267 85.555 44.46 86.2084 44.46C86.9017 44.46 87.295 44.76 87.3884 45.36C87.3884 45.4267 87.3884 45.4867 87.3884 45.54ZM95.7799 46.92C95.6333 47.0933 95.4799 47.28 95.3199 47.48C95.1733 47.68 94.9799 47.9533 94.7399 48.3C94.5133 48.6467 94.3999 48.94 94.3999 49.18C94.3999 49.42 94.4999 49.54 94.6999 49.54C94.9133 49.54 95.2533 49.4133 95.7199 49.16C96.6533 48.6267 97.6866 47.8267 98.8199 46.76C98.9533 46.6267 99.0399 46.6067 99.0799 46.7C99.0799 46.7133 99.0799 46.74 99.0799 46.78C99.0799 46.82 99.0533 46.8667 98.9999 46.92C96.7066 49.08 95.0399 50.16 93.9999 50.16C93.6933 50.16 93.4333 50.06 93.2199 49.86C93.0199 49.6467 92.9199 49.4 92.9199 49.12C92.9199 48.84 93.0399 48.4133 93.2799 47.84C92.6799 48.5867 92.0333 49.1667 91.3399 49.58C90.6599 49.98 90.1266 50.18 89.7399 50.18C89.3533 50.18 89.0199 50.0667 88.7399 49.84C88.4733 49.6 88.3399 49.3067 88.3399 48.96C88.3399 47.9733 88.7799 47.0067 89.6599 46.06C90.3266 45.3533 91.1533 44.8533 92.1399 44.56C92.5799 44.4133 93.0066 44.34 93.4199 44.34C93.8466 44.34 94.2533 44.46 94.6399 44.7C95.0399 44.9267 95.2933 45.2 95.3999 45.52C95.7999 45.52 96.0866 45.6667 96.2599 45.96C96.2866 46 96.2999 46.0667 96.2999 46.16C96.2999 46.2533 96.2466 46.36 96.1399 46.48C96.0466 46.6 95.9266 46.7467 95.7799 46.92ZM94.3199 44.94C94.0399 44.94 93.7066 45.0267 93.3199 45.2C92.6399 45.4933 91.9933 46 91.3799 46.72C90.4066 47.8667 89.9199 48.7067 89.9199 49.24C89.9199 49.52 90.0333 49.66 90.2599 49.66C90.4466 49.66 90.7533 49.54 91.1799 49.3C91.6199 49.06 92.1933 48.5867 92.8999 47.88C92.9399 47.84 93.0933 47.6933 93.3599 47.44C93.6266 47.1867 93.8533 46.9667 94.0399 46.78C94.6666 46.1267 94.9799 45.66 94.9799 45.38C94.9799 45.0867 94.7599 44.94 94.3199 44.94ZM103.428 45.52C103.615 45.3067 103.708 45.14 103.708 45.02C103.708 44.9 103.582 44.84 103.328 44.84C103.088 44.84 102.702 45.0733 102.168 45.54C101.675 45.9667 101.075 46.68 100.368 47.68C99.675 48.68 99.1684 49.36 98.8484 49.72C98.5417 50.0667 98.2684 50.24 98.0284 50.24C98.0017 50.24 97.975 50.24 97.9484 50.24C97.6017 50.24 97.2617 50.1 96.9284 49.82C97.0084 49.7 97.2017 49.44 97.5084 49.04C98.1884 48.2133 98.7817 47.4133 99.2884 46.64C98.715 47.2133 98.2284 47.66 97.8284 47.98C97.695 48.0867 97.6217 48.0933 97.6084 48C97.5817 47.9067 97.6084 47.8267 97.6884 47.76C97.7684 47.68 97.9017 47.56 98.0884 47.4C98.275 47.2267 98.395 47.1133 98.4484 47.06C98.515 47.0067 98.6284 46.9067 98.7884 46.76C98.9617 46.6 99.0884 46.4733 99.1684 46.38C99.5417 45.94 99.815 45.5667 99.9884 45.26C100.055 45.1 100.082 44.9467 100.068 44.8C100.068 44.64 100.035 44.54 99.9684 44.5C99.915 44.4467 99.895 44.3867 99.9084 44.32C99.9084 44.2133 99.9617 44.16 100.068 44.16C100.122 44.16 100.182 44.1733 100.248 44.2C100.662 44.3867 100.868 44.76 100.868 45.32C100.868 45.8667 100.748 46.4533 100.508 47.08C101.028 46.4 101.422 45.9133 101.688 45.62C102.382 44.8467 103.062 44.46 103.728 44.46C104.382 44.46 104.768 44.74 104.888 45.3C104.902 45.38 104.908 45.5067 104.908 45.68C104.908 45.84 104.842 46.06 104.708 46.34C104.588 46.62 104.295 47.08 103.828 47.72C103.362 48.36 103.088 48.7667 103.008 48.94C102.942 49.1 102.922 49.22 102.948 49.3C102.975 49.38 103.035 49.4267 103.128 49.44C103.288 49.4667 103.562 49.36 103.948 49.12C104.495 48.7333 105.202 48.14 106.068 47.34C106.215 47.1933 106.288 47.2067 106.288 47.38C106.288 47.4467 106.255 47.5133 106.188 47.58C104.895 48.78 103.935 49.5267 103.308 49.82C102.575 50.1933 102.002 50.2533 101.588 50C101.335 49.84 101.208 49.62 101.208 49.34C101.208 49.0467 101.262 48.7533 101.368 48.46C101.608 47.78 102.295 46.8 103.428 45.52Z" fill="black"/>
</g>
<path d="M12.6699 28H12.2119L10.3047 20.624L10.2773 20.2412L10.2363 20.624L8.34277 28H7.88477L5.28027 18.1973H6.16211L8.08301 25.6484L8.11035 26.0107L8.1377 25.6484L10.0244 18.1973H10.5166L12.4033 25.6484L12.4307 26.0107L12.4648 25.6484L14.3789 18.1973H15.2607L12.6699 28ZM20.8525 26.0791C20.8525 26.3617 20.7979 26.6283 20.6885 26.8789C20.5837 27.1296 20.4378 27.3483 20.251 27.5352C20.0641 27.722 19.8454 27.8701 19.5947 27.9795C19.3441 28.0843 19.0775 28.1367 18.7949 28.1367H18.2344C17.9518 28.1367 17.6852 28.0843 17.4346 27.9795C17.1839 27.8701 16.9652 27.722 16.7783 27.5352C16.5915 27.3483 16.4434 27.1296 16.334 26.8789C16.2292 26.6283 16.1768 26.3617 16.1768 26.0791V22.9209C16.1768 22.6383 16.2292 22.3717 16.334 22.1211C16.4434 21.8704 16.5915 21.6517 16.7783 21.4648C16.9652 21.278 17.1839 21.1322 17.4346 21.0273C17.6852 20.918 17.9518 20.8633 18.2344 20.8633H18.7949C19.0775 20.8633 19.3441 20.918 19.5947 21.0273C19.8454 21.1322 20.0641 21.278 20.251 21.4648C20.4378 21.6517 20.5837 21.8704 20.6885 22.1211C20.7979 22.3717 20.8525 22.6383 20.8525 22.9209V24.5684H17.0176V26.127C17.0176 26.2956 17.0495 26.4551 17.1133 26.6055C17.1771 26.7513 17.2637 26.8789 17.373 26.9883C17.4824 27.0977 17.61 27.1842 17.7559 27.248C17.9062 27.3118 18.0658 27.3438 18.2344 27.3438H18.7949C18.9635 27.3438 19.1208 27.3118 19.2666 27.248C19.417 27.1842 19.5469 27.0977 19.6562 26.9883C19.7656 26.8789 19.8522 26.7513 19.916 26.6055C19.9798 26.4551 20.0117 26.2956 20.0117 26.127V25.6621L20.8525 25.7988V26.0791ZM20.0117 22.873C20.0117 22.7044 19.9798 22.5472 19.916 22.4014C19.8522 22.251 19.7656 22.1211 19.6562 22.0117C19.5469 21.9023 19.417 21.8158 19.2666 21.752C19.1208 21.6882 18.9635 21.6562 18.7949 21.6562H18.2344C18.0658 21.6562 17.9062 21.6882 17.7559 21.752C17.61 21.8158 17.4824 21.9023 17.373 22.0117C17.2637 22.1211 17.1771 22.251 17.1133 22.4014C17.0495 22.5472 17.0176 22.7044 17.0176 22.873V23.9121H20.0117V22.873ZM27.21 26.0791C27.21 26.3617 27.1553 26.6283 27.0459 26.8789C26.9411 27.1296 26.7952 27.3483 26.6084 27.5352C26.4215 27.722 26.2028 27.8701 25.9521 27.9795C25.7015 28.0843 25.4349 28.1367 25.1523 28.1367H24.5918C24.3092 28.1367 24.0426 28.0843 23.792 27.9795C23.5413 27.8701 23.3226 27.722 23.1357 27.5352C22.9489 27.3483 22.8008 27.1296 22.6914 26.8789C22.5866 26.6283 22.5342 26.3617 22.5342 26.0791V18.1973H23.375V21.5879C23.5664 21.36 23.7965 21.1823 24.0654 21.0547C24.3343 20.9271 24.626 20.8633 24.9404 20.8633H25.1523C25.4349 20.8633 25.7015 20.918 25.9521 21.0273C26.2028 21.1322 26.4215 21.278 26.6084 21.4648C26.7952 21.6517 26.9411 21.8704 27.0459 22.1211C27.1553 22.3717 27.21 22.6383 27.21 22.9209V26.0791ZM26.3691 22.873C26.3691 22.7044 26.3372 22.5472 26.2734 22.4014C26.2096 22.251 26.123 22.1211 26.0137 22.0117C25.9043 21.9023 25.7744 21.8158 25.624 21.752C25.4782 21.6882 25.321 21.6562 25.1523 21.6562H24.5918C24.4232 21.6562 24.2637 21.6882 24.1133 21.752C23.9674 21.8158 23.8398 21.9023 23.7305 22.0117C23.6211 22.1211 23.5345 22.251 23.4707 22.4014C23.4069 22.5472 23.375 22.7044 23.375 22.873V26.127C23.375 26.2956 23.4069 26.4551 23.4707 26.6055C23.5345 26.7513 23.6211 26.8789 23.7305 26.9883C23.8398 27.0977 23.9674 27.1842 24.1133 27.248C24.2637 27.3118 24.4232 27.3438 24.5918 27.3438H25.1523C25.321 27.3438 25.4782 27.3118 25.624 27.248C25.7744 27.1842 25.9043 27.0977 26.0137 26.9883C26.123 26.8789 26.2096 26.7513 26.2734 26.6055C26.3372 26.4551 26.3691 26.2956 26.3691 26.127V22.873ZM37.7715 25.7305C37.7715 26.0632 37.7031 26.3753 37.5664 26.667C37.4342 26.9587 37.2542 27.2139 37.0264 27.4326C36.8031 27.6514 36.541 27.8245 36.2402 27.9521C35.944 28.0752 35.6296 28.1367 35.2969 28.1367H34.5928C34.2601 28.1367 33.9434 28.0752 33.6426 27.9521C33.3464 27.8245 33.0843 27.6514 32.8564 27.4326C32.6331 27.2139 32.4531 26.9587 32.3164 26.667C32.1842 26.3753 32.1182 26.0632 32.1182 25.7305V25.3408L33 25.1973V25.7305C33 25.9492 33.0433 26.1543 33.1299 26.3457C33.221 26.5326 33.3418 26.6989 33.4922 26.8447C33.6426 26.986 33.8158 27.0977 34.0117 27.1797C34.2122 27.2617 34.4219 27.3027 34.6406 27.3027H35.2559C35.4746 27.3027 35.682 27.2617 35.8779 27.1797C36.0739 27.0977 36.2471 26.986 36.3975 26.8447C36.5479 26.6989 36.6663 26.5326 36.7529 26.3457C36.8441 26.1543 36.8896 25.9492 36.8896 25.7305V25.4365C36.8896 25.0993 36.8236 24.819 36.6914 24.5957C36.5592 24.3724 36.3838 24.1833 36.165 24.0283C35.9463 23.8688 35.6979 23.7344 35.4199 23.625C35.1465 23.5156 34.8639 23.4062 34.5723 23.2969C34.2806 23.1875 33.9958 23.0667 33.7178 22.9346C33.4443 22.8024 33.1982 22.6383 32.9795 22.4424C32.7607 22.2419 32.5853 21.998 32.4531 21.7109C32.321 21.4238 32.2549 21.0706 32.2549 20.6514V20.4668C32.2549 20.1341 32.3164 19.8219 32.4395 19.5303C32.5671 19.2386 32.7402 18.9834 32.959 18.7646C33.1777 18.5459 33.4329 18.375 33.7246 18.252C34.0208 18.1243 34.3353 18.0605 34.668 18.0605H35.2969C35.6296 18.0605 35.9417 18.1243 36.2334 18.252C36.5251 18.375 36.7803 18.5459 36.999 18.7646C37.2178 18.9834 37.3887 19.2386 37.5117 19.5303C37.6393 19.8219 37.7031 20.1341 37.7031 20.4668V20.7197L36.8213 20.8633V20.4668C36.8213 20.248 36.7803 20.0452 36.6982 19.8584C36.6162 19.667 36.5046 19.5007 36.3633 19.3594C36.222 19.2181 36.0557 19.1064 35.8643 19.0244C35.6774 18.9424 35.4746 18.9014 35.2559 18.9014H34.709C34.4902 18.9014 34.2852 18.9424 34.0938 19.0244C33.9069 19.1064 33.7406 19.2181 33.5947 19.3594C33.4535 19.5007 33.3418 19.667 33.2598 19.8584C33.1777 20.0452 33.1367 20.248 33.1367 20.4668V20.6514C33.1367 20.9658 33.2028 21.2301 33.335 21.4443C33.4671 21.6585 33.6426 21.8431 33.8613 21.998C34.0801 22.1484 34.3262 22.2806 34.5996 22.3945C34.8776 22.5039 35.1624 22.6178 35.4541 22.7363C35.7458 22.8503 36.0283 22.9779 36.3018 23.1191C36.5798 23.2559 36.8281 23.4268 37.0469 23.6318C37.2656 23.8324 37.4411 24.0785 37.5732 24.3701C37.7054 24.6618 37.7715 25.0173 37.7715 25.4365V25.7305ZM41.9414 28C41.6862 28 41.4447 27.9521 41.2168 27.8564C40.9935 27.7607 40.7975 27.6286 40.6289 27.46C40.4648 27.2913 40.3327 27.0954 40.2324 26.8721C40.1367 26.6488 40.0889 26.4095 40.0889 26.1543V21.7998H38.8311V21H40.0889V19.3184L40.9297 19.1816V21H42.707V21.7998H40.9297V26.1953C40.9297 26.3366 40.9548 26.4688 41.0049 26.5918C41.0596 26.7103 41.1325 26.8151 41.2236 26.9062C41.3148 26.9974 41.4219 27.0703 41.5449 27.125C41.668 27.1751 41.8001 27.2002 41.9414 27.2002H42.707V28H41.9414ZM48.6543 28L48.1895 27.2891C47.998 27.5488 47.7588 27.7562 47.4717 27.9111C47.1846 28.0615 46.8701 28.1367 46.5283 28.1367H46.3164C46.0339 28.1367 45.7673 28.0843 45.5166 27.9795C45.266 27.8701 45.0472 27.722 44.8604 27.5352C44.6735 27.3483 44.5254 27.1296 44.416 26.8789C44.3112 26.6283 44.2588 26.3617 44.2588 26.0791V21H45.0996V26.127C45.0996 26.2956 45.1315 26.4551 45.1953 26.6055C45.2591 26.7513 45.3457 26.8789 45.4551 26.9883C45.5645 27.0977 45.6921 27.1842 45.8379 27.248C45.9883 27.3118 46.1478 27.3438 46.3164 27.3438H46.877C47.0456 27.3438 47.2028 27.3118 47.3486 27.248C47.499 27.1842 47.6289 27.0977 47.7383 26.9883C47.8477 26.8789 47.9342 26.7513 47.998 26.6055C48.0618 26.4551 48.0938 26.2956 48.0938 26.127V21H48.9346V28H48.6543ZM55.0117 28L54.5469 27.2891C54.3555 27.5488 54.1162 27.7562 53.8291 27.9111C53.542 28.0615 53.2275 28.1367 52.8857 28.1367H52.6738C52.3913 28.1367 52.1247 28.0843 51.874 27.9795C51.6234 27.8701 51.4046 27.722 51.2178 27.5352C51.0309 27.3483 50.8828 27.1296 50.7734 26.8789C50.6686 26.6283 50.6162 26.3617 50.6162 26.0791V22.9209C50.6162 22.6383 50.6686 22.3717 50.7734 22.1211C50.8828 21.8704 51.0309 21.6517 51.2178 21.4648C51.4046 21.278 51.6234 21.1322 51.874 21.0273C52.1247 20.918 52.3913 20.8633 52.6738 20.8633H52.8857C53.2002 20.8633 53.4919 20.9271 53.7607 21.0547C54.0296 21.1823 54.2598 21.36 54.4512 21.5879V18.1973H55.292V28H55.0117ZM54.4512 22.873C54.4512 22.7044 54.4193 22.5472 54.3555 22.4014C54.2917 22.251 54.2051 22.1211 54.0957 22.0117C53.9863 21.9023 53.8564 21.8158 53.7061 21.752C53.5602 21.6882 53.403 21.6562 53.2344 21.6562H52.6738C52.5052 21.6562 52.3457 21.6882 52.1953 21.752C52.0495 21.8158 51.9219 21.9023 51.8125 22.0117C51.7031 22.1211 51.6165 22.251 51.5527 22.4014C51.4889 22.5472 51.457 22.7044 51.457 22.873V26.127C51.457 26.2956 51.4889 26.4551 51.5527 26.6055C51.6165 26.7513 51.7031 26.8789 51.8125 26.9883C51.9219 27.0977 52.0495 27.1842 52.1953 27.248C52.3457 27.3118 52.5052 27.3438 52.6738 27.3438H53.2344C53.403 27.3438 53.5602 27.3118 53.7061 27.248C53.8564 27.1842 53.9863 27.0977 54.0957 26.9883C54.2051 26.8789 54.2917 26.7513 54.3555 26.6055C54.4193 26.4551 54.4512 26.2956 54.4512 26.127V22.873ZM57.1855 19.3184V18.1973H58.1631V19.3184H57.1855ZM57.2539 28V21H58.0947V28H57.2539ZM64.7393 26.0791C64.7393 26.3617 64.6846 26.6283 64.5752 26.8789C64.4704 27.1296 64.3245 27.3483 64.1377 27.5352C63.9508 27.722 63.7321 27.8701 63.4814 27.9795C63.2308 28.0843 62.9642 28.1367 62.6816 28.1367H62.1211C61.8385 28.1367 61.5719 28.0843 61.3213 27.9795C61.0706 27.8701 60.8519 27.722 60.665 27.5352C60.4782 27.3483 60.3301 27.1296 60.2207 26.8789C60.1159 26.6283 60.0635 26.3617 60.0635 26.0791V22.9209C60.0635 22.6383 60.1159 22.3717 60.2207 22.1211C60.3301 21.8704 60.4782 21.6517 60.665 21.4648C60.8519 21.278 61.0706 21.1322 61.3213 21.0273C61.5719 20.918 61.8385 20.8633 62.1211 20.8633H62.6816C62.9642 20.8633 63.2308 20.918 63.4814 21.0273C63.7321 21.1322 63.9508 21.278 64.1377 21.4648C64.3245 21.6517 64.4704 21.8704 64.5752 22.1211C64.6846 22.3717 64.7393 22.6383 64.7393 22.9209V26.0791ZM63.8984 22.873C63.8984 22.7044 63.8665 22.5472 63.8027 22.4014C63.7389 22.251 63.6523 22.1211 63.543 22.0117C63.4336 21.9023 63.3037 21.8158 63.1533 21.752C63.0075 21.6882 62.8503 21.6562 62.6816 21.6562H62.1211C61.9525 21.6562 61.793 21.6882 61.6426 21.752C61.4967 21.8158 61.3691 21.9023 61.2598 22.0117C61.1504 22.1211 61.0638 22.251 61 22.4014C60.9362 22.5472 60.9043 22.7044 60.9043 22.873V26.127C60.9043 26.2956 60.9362 26.4551 61 26.6055C61.0638 26.7513 61.1504 26.8789 61.2598 26.9883C61.3691 27.0977 61.4967 27.1842 61.6426 27.248C61.793 27.3118 61.9525 27.3438 62.1211 27.3438H62.6816C62.8503 27.3438 63.0075 27.3118 63.1533 27.248C63.3037 27.1842 63.4336 27.0977 63.543 26.9883C63.6523 26.8789 63.7389 26.7513 63.8027 26.6055C63.8665 26.4551 63.8984 26.2956 63.8984 26.127V22.873Z" fill="black"/>
<defs>
<filter id="filter0_d_22_2" x="0.540546" y="36.48" width="109.748" height="23.52" filterUnits="userSpaceOnUse" color-interpolation-filters="sRGB">
<feFlood flood-opacity="0" result="BackgroundImageFix"/>
<feColorMatrix in="SourceAlpha" type="matrix" values="0 0 0 0 0 0 0 0 0 0 0 0 0 0 0 0 0 0 127 0" result="hardAlpha"/>
<feOffset dy="4"/>
<feGaussianBlur stdDeviation="2"/>
<feComposite in2="hardAlpha" operator="out"/>
<feColorMatrix type="matrix" values="0 0 0 0 0 0 0 0 0 0 0 0 0 0 0 0 0 0 0.25 0"/>
<feBlend mode="normal" in2="BackgroundImageFix" result="effect1_dropShadow_22_2"/>
<feBlend mode="normal" in="SourceGraphic" in2="effect1_dropShadow_22_2" result="shape"/>
</filter>
</defs>
</svg>
