<svg width="30" height="30" viewBox="0 0 30 30" fill="none" xmlns="http://www.w3.org/2000/svg">
<path d="M8.4 2.39999C5.0932 2.39999 2.4 5.09319 2.4 8.39999V21.6C2.4 24.9068 5.0932 27.6 8.4 27.6H21.6C24.9068 27.6 27.6 24.9068 27.6 21.6V8.39999C27.6 5.09319 24.9068 2.39999 21.6 2.39999H8.4ZM7.8 9.59999H22.2C22.308 9.59999 22.4099 9.61218 22.5059 9.64218L16.6078 15.5344C15.7198 16.4224 14.2743 16.4224 13.3863 15.5344L7.49414 9.64218C7.59014 9.61218 7.692 9.59999 7.8 9.59999ZM6.64219 10.4941L11.1539 15L6.64219 19.5059C6.61219 19.4099 6.6 19.308 6.6 19.2V10.8C6.6 10.692 6.61219 10.5901 6.64219 10.4941ZM23.3578 10.4941C23.3878 10.5901 23.4 10.692 23.4 10.8V19.2C23.4 19.308 23.3878 19.4099 23.3578 19.5059L18.8402 15L23.3578 10.4941ZM12 15.8461L12.5344 16.3863C13.2124 17.0643 14.1061 17.4 14.9941 17.4C15.8881 17.4 16.7759 17.0643 17.4539 16.3863L17.9941 15.8461L22.5059 20.3578C22.4099 20.3878 22.308 20.4 22.2 20.4H7.8C7.692 20.4 7.59014 20.3878 7.49414 20.3578L12 15.8461Z" fill="black"/>
</svg>
