<svg width="30" height="30" viewBox="0 0 30 30" fill="none" xmlns="http://www.w3.org/2000/svg">
<path d="M15 1.20001C7.3908 1.20001 1.2 7.39021 1.2 15C1.2 22.6098 7.3908 28.8 15 28.8C22.6092 28.8 28.8 22.6098 28.8 15C28.8 7.39021 22.6092 1.20001 15 1.20001ZM10.8 21H8.4V12H10.8V21ZM9.6 10.2C8.937 10.2 8.4 9.66301 8.4 9.00001C8.4 8.33701 8.937 7.80001 9.6 7.80001C10.263 7.80001 10.8 8.33701 10.8 9.00001C10.8 9.66301 10.263 10.2 9.6 10.2ZM22.2 21H19.8V18V16.5C19.8 15.345 18.855 14.4 17.7 14.4C16.545 14.4 15.6 15.345 15.6 16.5V21H13.2V12H15.6V13.0896C16.3008 12.4164 17.2512 12 18.3 12C20.454 12 22.2 13.746 22.2 15.9V21Z" fill="black"/>
</svg>
