<svg width="30" height="30" viewBox="0 0 30 30" fill="none" xmlns="http://www.w3.org/2000/svg">
<path d="M26.8688 7.89374C26.4 6.2203 25.4719 4.89843 24.1125 3.96327C22.3969 2.77968 20.4234 2.36249 18.7195 2.10702C16.3617 1.75546 14.2266 1.70624 12.1898 1.95468C10.282 2.18905 8.84532 2.56171 7.53516 3.16405C4.96641 4.3453 3.42422 6.25546 2.95313 8.84062C2.72344 10.0969 2.56876 11.2312 2.47969 12.3141C2.27344 14.8172 2.46094 17.032 3.05157 19.0851C3.62813 21.0867 4.6336 22.5164 6.12657 23.4562C6.50626 23.6953 6.99376 23.8687 7.46485 24.0351C7.73204 24.1289 7.99219 24.2203 8.20547 24.3211C8.40235 24.4125 8.40235 24.4289 8.40001 24.593C8.3836 26.0156 8.40001 28.8047 8.40001 28.8047L8.40469 29.4H9.47344L9.64688 29.2312C9.76172 29.1234 12.4102 26.5641 13.3547 25.5328L13.4836 25.3898C13.6453 25.2023 13.6453 25.2023 13.8117 25.2C15.0867 25.1742 16.3899 25.125 17.6836 25.0547C19.2516 24.9703 21.068 24.818 22.7789 24.1055C24.3445 23.4516 25.4883 22.4133 26.175 21.0211C26.8922 19.568 27.3164 17.9953 27.4758 16.2117C27.757 13.0758 27.5578 10.3547 26.8688 7.89374ZM21.2297 20.0883C20.8359 20.7281 20.25 21.1734 19.5586 21.4617C19.0524 21.6726 18.5367 21.6281 18.0375 21.4172C13.8586 19.6476 10.5797 16.8609 8.41407 12.8531C7.96641 12.0281 7.65704 11.1281 7.30079 10.2562C7.22813 10.0781 7.23282 9.86718 7.20001 9.6703C7.23047 8.26171 8.31094 7.46718 9.40313 7.22812C9.82032 7.13437 10.1906 7.28202 10.5 7.57968C11.3578 8.3953 12.0352 9.34452 12.5461 10.4086C12.7688 10.875 12.668 11.2875 12.2883 11.6344C12.2086 11.707 12.1266 11.7726 12.0399 11.8383C11.1727 12.4898 11.0461 12.9844 11.5078 13.9664C12.2953 15.6375 13.6031 16.7601 15.293 17.4562C15.7383 17.6391 16.1578 17.5476 16.4977 17.1867C16.5445 17.1398 16.5961 17.093 16.6289 17.0367C17.2945 15.9258 18.2625 16.0359 19.1555 16.6687C19.7414 17.0859 20.3109 17.5266 20.8899 17.9508C21.7734 18.6 21.7664 19.2094 21.2297 20.0883ZM15.6867 8.99999C15.4899 8.99999 15.293 9.0164 15.0984 9.04921C14.7703 9.10312 14.4633 8.8828 14.407 8.55468C14.3531 8.2289 14.5734 7.91952 14.9016 7.86562C15.1594 7.82108 15.4242 7.79999 15.6867 7.79999C18.2859 7.79999 20.4 9.91405 20.4 12.5133C20.4 12.7781 20.3789 13.043 20.3344 13.2984C20.2852 13.5914 20.032 13.8 19.7438 13.8C19.7109 13.8 19.6781 13.7976 19.643 13.7906C19.3172 13.7367 19.0969 13.4273 19.1508 13.1016C19.1836 12.9094 19.2 12.7125 19.2 12.5133C19.2 10.5773 17.6227 8.99999 15.6867 8.99999ZM18.6 12.6C18.6 12.9305 18.3305 13.2 18 13.2C17.6695 13.2 17.4 12.9305 17.4 12.6C17.4 11.6086 16.5914 10.8 15.6 10.8C15.2695 10.8 15 10.5305 15 10.2C15 9.86952 15.2695 9.59999 15.6 9.59999C17.2547 9.59999 18.6 10.9453 18.6 12.6ZM22.0266 13.9336C21.9633 14.2125 21.7149 14.4 21.4406 14.4C21.3961 14.4 21.3516 14.3953 21.307 14.3859C20.9836 14.3109 20.782 13.9898 20.8547 13.6664C20.9414 13.2844 20.9859 12.8883 20.9859 12.4898C20.9859 9.57421 18.6117 7.19999 15.6961 7.19999C15.2977 7.19999 14.9016 7.24452 14.5195 7.33124C14.1961 7.40624 13.875 7.20233 13.8024 6.8789C13.7274 6.55546 13.9313 6.23437 14.2547 6.16171C14.7234 6.0539 15.2086 5.99999 15.6961 5.99999C19.275 5.99999 22.1859 8.91093 22.1859 12.4898C22.1859 12.9773 22.132 13.4625 22.0266 13.9336Z" fill="black"/>
</svg>
